<svg width="2767" height="2178" xmlns="http://www.w3.org/2000/svg" xmlns:xlink="http://www.w3.org/1999/xlink" xml:space="preserve" overflow="hidden"><defs><linearGradient x1="328.5" y1="1037" x2="768.5" y2="1037" gradientUnits="userSpaceOnUse" spreadMethod="reflect" id="fill0"><stop offset="0" stop-color="#34FECF"/><stop offset="0.36" stop-color="#ADA2FD"/><stop offset="0.7" stop-color="#62A9FF"/><stop offset="1" stop-color="#56F8FF"/></linearGradient><linearGradient x1="1065.5" y1="1095" x2="1505.5" y2="1095" gradientUnits="userSpaceOnUse" spreadMethod="reflect" id="fill1"><stop offset="0" stop-color="#34FECF"/><stop offset="0.36" stop-color="#ADA2FD"/><stop offset="0.7" stop-color="#62A9FF"/><stop offset="1" stop-color="#56F8FF"/></linearGradient><linearGradient x1="2616.5" y1="1204" x2="3056.5" y2="1204" gradientUnits="userSpaceOnUse" spreadMethod="reflect" id="fill2"><stop offset="0" stop-color="#34FECF"/><stop offset="0.36" stop-color="#ADA2FD"/><stop offset="0.7" stop-color="#62A9FF"/><stop offset="1" stop-color="#56F8FF"/></linearGradient><linearGradient x1="1870.5" y1="1149" x2="2310.5" y2="1149" gradientUnits="userSpaceOnUse" spreadMethod="reflect" id="fill3"><stop offset="0" stop-color="#34FECF"/><stop offset="0.36" stop-color="#ADA2FD"/><stop offset="0.7" stop-color="#62A9FF"/><stop offset="1" stop-color="#56F8FF"/></linearGradient><linearGradient x1="328.5" y1="2064" x2="767.5" y2="2064" gradientUnits="userSpaceOnUse" spreadMethod="reflect" id="fill4"><stop offset="0" stop-color="#34FECF"/><stop offset="0.36" stop-color="#ADA2FD"/><stop offset="0.7" stop-color="#62A9FF"/><stop offset="1" stop-color="#56F8FF"/></linearGradient><linearGradient x1="328.5" y1="2018" x2="767.5" y2="2018" gradientUnits="userSpaceOnUse" spreadMethod="reflect" id="fill5"><stop offset="0" stop-color="#34FECF"/><stop offset="0.36" stop-color="#ADA2FD"/><stop offset="0.7" stop-color="#62A9FF"/><stop offset="1" stop-color="#56F8FF"/></linearGradient><linearGradient x1="328.5" y1="1970" x2="767.5" y2="1970" gradientUnits="userSpaceOnUse" spreadMethod="reflect" id="fill6"><stop offset="0" stop-color="#34FECF"/><stop offset="0.36" stop-color="#ADA2FD"/><stop offset="0.7" stop-color="#62A9FF"/><stop offset="1" stop-color="#56F8FF"/></linearGradient><linearGradient x1="328.5" y1="1922.5" x2="767.5" y2="1922.5" gradientUnits="userSpaceOnUse" spreadMethod="reflect" id="fill7"><stop offset="0" stop-color="#34FECF"/><stop offset="0.36" stop-color="#ADA2FD"/><stop offset="0.7" stop-color="#62A9FF"/><stop offset="1" stop-color="#56F8FF"/></linearGradient><linearGradient x1="1062.5" y1="2064" x2="1502.5" y2="2064" gradientUnits="userSpaceOnUse" spreadMethod="reflect" id="fill8"><stop offset="0" stop-color="#34FECF"/><stop offset="0.36" stop-color="#ADA2FD"/><stop offset="0.7" stop-color="#62A9FF"/><stop offset="1" stop-color="#56F8FF"/></linearGradient><linearGradient x1="1062.5" y1="2018" x2="1502.5" y2="2018" gradientUnits="userSpaceOnUse" spreadMethod="reflect" id="fill9"><stop offset="0" stop-color="#34FECF"/><stop offset="0.36" stop-color="#ADA2FD"/><stop offset="0.7" stop-color="#62A9FF"/><stop offset="1" stop-color="#56F8FF"/></linearGradient><linearGradient x1="1062.5" y1="1970" x2="1502.5" y2="1970" gradientUnits="userSpaceOnUse" spreadMethod="reflect" id="fill10"><stop offset="0" stop-color="#34FECF"/><stop offset="0.36" stop-color="#ADA2FD"/><stop offset="0.7" stop-color="#62A9FF"/><stop offset="1" stop-color="#56F8FF"/></linearGradient><linearGradient x1="1062.5" y1="1923" x2="1502.5" y2="1923" gradientUnits="userSpaceOnUse" spreadMethod="reflect" id="fill11"><stop offset="0" stop-color="#34FECF"/><stop offset="0.36" stop-color="#ADA2FD"/><stop offset="0.7" stop-color="#62A9FF"/><stop offset="1" stop-color="#56F8FF"/></linearGradient><linearGradient x1="1869.5" y1="2059" x2="2309.5" y2="2059" gradientUnits="userSpaceOnUse" spreadMethod="reflect" id="fill12"><stop offset="0" stop-color="#34FECF"/><stop offset="0.36" stop-color="#ADA2FD"/><stop offset="0.7" stop-color="#62A9FF"/><stop offset="1" stop-color="#56F8FF"/></linearGradient><linearGradient x1="1869.5" y1="2013" x2="2309.5" y2="2013" gradientUnits="userSpaceOnUse" spreadMethod="reflect" id="fill13"><stop offset="0" stop-color="#34FECF"/><stop offset="0.36" stop-color="#ADA2FD"/><stop offset="0.7" stop-color="#62A9FF"/><stop offset="1" stop-color="#56F8FF"/></linearGradient><linearGradient x1="1869.5" y1="1965" x2="2309.5" y2="1965" gradientUnits="userSpaceOnUse" spreadMethod="reflect" id="fill14"><stop offset="0" stop-color="#34FECF"/><stop offset="0.36" stop-color="#ADA2FD"/><stop offset="0.7" stop-color="#62A9FF"/><stop offset="1" stop-color="#56F8FF"/></linearGradient><linearGradient x1="1869.5" y1="1918" x2="2309.5" y2="1918" gradientUnits="userSpaceOnUse" spreadMethod="reflect" id="fill15"><stop offset="0" stop-color="#34FECF"/><stop offset="0.36" stop-color="#ADA2FD"/><stop offset="0.7" stop-color="#62A9FF"/><stop offset="1" stop-color="#56F8FF"/></linearGradient><linearGradient x1="2614.5" y1="2058" x2="3054.5" y2="2058" gradientUnits="userSpaceOnUse" spreadMethod="reflect" id="fill16"><stop offset="0" stop-color="#34FECF"/><stop offset="0.36" stop-color="#ADA2FD"/><stop offset="0.7" stop-color="#62A9FF"/><stop offset="1" stop-color="#56F8FF"/></linearGradient><linearGradient x1="2614.5" y1="2012" x2="3054.5" y2="2012" gradientUnits="userSpaceOnUse" spreadMethod="reflect" id="fill17"><stop offset="0" stop-color="#34FECF"/><stop offset="0.36" stop-color="#ADA2FD"/><stop offset="0.7" stop-color="#62A9FF"/><stop offset="1" stop-color="#56F8FF"/></linearGradient><linearGradient x1="2614.5" y1="1964" x2="3054.5" y2="1964" gradientUnits="userSpaceOnUse" spreadMethod="reflect" id="fill18"><stop offset="0" stop-color="#34FECF"/><stop offset="0.36" stop-color="#ADA2FD"/><stop offset="0.7" stop-color="#62A9FF"/><stop offset="1" stop-color="#56F8FF"/></linearGradient><linearGradient x1="2614.5" y1="1916.5" x2="3054.5" y2="1916.5" gradientUnits="userSpaceOnUse" spreadMethod="reflect" id="fill19"><stop offset="0" stop-color="#34FECF"/><stop offset="0.36" stop-color="#ADA2FD"/><stop offset="0.7" stop-color="#62A9FF"/><stop offset="1" stop-color="#56F8FF"/></linearGradient></defs><g transform="translate(-325 -180)"><rect x="406.5" y="486.5" width="271" height="128" stroke="#292D3A" stroke-width="6.875" stroke-miterlimit="8" fill="none"/><text fill="#292D3A" font-family="HPE Graphik,HPE Graphik_MSFontService,sans-serif" font-weight="400" font-size="46" transform="matrix(1 0 0 1 468.85 567)">Node 1</text><rect x="1164.5" y="492.5" width="270" height="128" stroke="#292D3A" stroke-width="6.875" stroke-miterlimit="8" fill="none"/><text fill="#292D3A" font-family="HPE Graphik,HPE Graphik_MSFontService,sans-serif" font-weight="400" font-size="46" transform="matrix(1 0 0 1 1222.67 573)">Node 2</text><rect x="1977.5" y="488.5" width="271" height="128" stroke="#292D3A" stroke-width="6.875" stroke-miterlimit="8" fill="none"/><text fill="#292D3A" font-family="HPE Graphik,HPE Graphik_MSFontService,sans-serif" font-weight="400" font-size="46" transform="matrix(1 0 0 1 2034.92 570)">Node 3</text><rect x="2818.5" y="486.5" width="270" height="128" stroke="#292D3A" stroke-width="6.875" stroke-miterlimit="8" fill="none"/><text fill="#292D3A" font-family="HPE Graphik,HPE Graphik_MSFontService,sans-serif" font-weight="400" font-size="46" transform="matrix(1 0 0 1 2875.19 567)">Node 4</text><path d="M677.5 550.5 1164.12 556.386" stroke="#292D3A" stroke-width="6.875" stroke-miterlimit="8" fill="none" fill-rule="evenodd"/><path d="M542.5 717.5 2953.71 717.5" stroke="#292D3A" stroke-width="6.875" stroke-miterlimit="8" fill="none" fill-rule="evenodd"/><path d="M0 0 542.751 3.6728" stroke="#292D3A" stroke-width="6.875" stroke-miterlimit="8" fill="none" fill-rule="evenodd" transform="matrix(1 0 0 -1 1434.5 556.173)"/><path d="M0 0 569.915 2.21335" stroke="#292D3A" stroke-width="6.875" stroke-miterlimit="8" fill="none" fill-rule="evenodd" transform="matrix(1 0 0 -1 2248.5 552.713)"/><rect x="328.5" y="361.5" width="445" height="48.9998" stroke="#292D3A" stroke-width="6.875" stroke-miterlimit="8" fill="#34FECF"/><text fill="#292D3A" font-family="HPE Graphik,HPE Graphik_MSFontService,sans-serif" font-weight="400" font-size="46" transform="matrix(1 0 0 1 520.648 403)">A4</text><rect x="328.5" y="308.5" width="445" height="49.0002" stroke="#292D3A" stroke-width="6.875" stroke-miterlimit="8" fill="#34FECF"/><text fill="#292D3A" font-family="HPE Graphik,HPE Graphik_MSFontService,sans-serif" font-weight="400" font-size="46" transform="matrix(1 0 0 1 520.935 350)">A3</text><rect x="328.5" y="254.5" width="445" height="49.0002" stroke="#292D3A" stroke-width="6.875" stroke-miterlimit="8" fill="#34FECF"/><text fill="#292D3A" font-family="HPE Graphik,HPE Graphik_MSFontService,sans-serif" font-weight="400" font-size="46" transform="matrix(1 0 0 1 522.081 296)">A2</text><rect x="328.5" y="199.5" width="445" height="49.0002" stroke="#292D3A" stroke-width="6.875" stroke-miterlimit="8" fill="#34FECF"/><text fill="#292D3A" font-family="HPE Graphik,HPE Graphik_MSFontService,sans-serif" font-weight="400" font-size="46" transform="matrix(1 0 0 1 525.518 241)">A1</text><rect x="1073.5" y="362.5" width="445" height="48.9998" stroke="#292D3A" stroke-width="6.875" stroke-miterlimit="8" fill="#C9C1FE"/><text fill="#292D3A" font-family="HPE Graphik,HPE Graphik_MSFontService,sans-serif" font-weight="400" font-size="46" transform="matrix(1 0 0 1 1267.44 404)">B4</text><rect x="1073.5" y="309.5" width="445" height="49.0002" stroke="#292D3A" stroke-width="6.875" stroke-miterlimit="8" fill="#C9C1FE"/><text fill="#292D3A" font-family="HPE Graphik,HPE Graphik_MSFontService,sans-serif" font-weight="400" font-size="46" transform="matrix(1 0 0 1 1267.72 351)">B3</text><rect x="1073.5" y="255.5" width="445" height="49.0002" stroke="#292D3A" stroke-width="6.875" stroke-miterlimit="8" fill="#C9C1FE"/><text fill="#292D3A" font-family="HPE Graphik,HPE Graphik_MSFontService,sans-serif" font-weight="400" font-size="46" transform="matrix(1 0 0 1 1268.87 297)">B2</text><rect x="1073.5" y="201.5" width="445" height="49.0002" stroke="#292D3A" stroke-width="6.875" stroke-miterlimit="8" fill="#C9C1FE"/><text fill="#292D3A" font-family="HPE Graphik,HPE Graphik_MSFontService,sans-serif" font-weight="400" font-size="46" transform="matrix(1 0 0 1 1272.31 243)">B1</text><rect x="2643.5" y="359.5" width="445" height="48.9998" stroke="#292D3A" stroke-width="6.875" stroke-miterlimit="8" fill="#56F8FF"/><text fill="#292D3A" font-family="HPE Graphik,HPE Graphik_MSFontService,sans-serif" font-weight="400" font-size="46" transform="matrix(1 0 0 1 2835.6 401)">D4</text><rect x="2643.5" y="306.5" width="445" height="48.9998" stroke="#292D3A" stroke-width="6.875" stroke-miterlimit="8" fill="#56F8FF"/><text fill="#292D3A" font-family="HPE Graphik,HPE Graphik_MSFontService,sans-serif" font-weight="400" font-size="46" transform="matrix(1 0 0 1 2835.89 348)">D3</text><rect x="2643.5" y="252.5" width="445" height="48.9998" stroke="#292D3A" stroke-width="6.875" stroke-miterlimit="8" fill="#56F8FF"/><text fill="#292D3A" font-family="HPE Graphik,HPE Graphik_MSFontService,sans-serif" font-weight="400" font-size="46" transform="matrix(1 0 0 1 2837.03 294)">D2</text><rect x="2643.5" y="197.5" width="445" height="48.9998" stroke="#292D3A" stroke-width="6.875" stroke-miterlimit="8" fill="#56F8FF"/><text fill="#292D3A" font-family="HPE Graphik,HPE Graphik_MSFontService,sans-serif" font-weight="400" font-size="46" transform="matrix(1 0 0 1 2840.47 239)">D1</text><rect x="1888.5" y="359.5" width="445" height="48.9998" stroke="#292D3A" stroke-width="6.875" stroke-miterlimit="8" fill="#62A9FF"/><text fill="#292D3A" font-family="HPE Graphik,HPE Graphik_MSFontService,sans-serif" font-weight="400" font-size="46" transform="matrix(1 0 0 1 2079.4 401)">C4</text><rect x="1888.5" y="306.5" width="445" height="48.9998" stroke="#292D3A" stroke-width="6.875" stroke-miterlimit="8" fill="#62A9FF"/><text fill="#292D3A" font-family="HPE Graphik,HPE Graphik_MSFontService,sans-serif" font-weight="400" font-size="46" transform="matrix(1 0 0 1 2079.68 348)">C3</text><rect x="1888.5" y="252.5" width="445" height="48.9998" stroke="#292D3A" stroke-width="6.875" stroke-miterlimit="8" fill="#62A9FF"/><text fill="#292D3A" font-family="HPE Graphik,HPE Graphik_MSFontService,sans-serif" font-weight="400" font-size="46" transform="matrix(1 0 0 1 2080.83 294)">C2</text><rect x="1888.5" y="197.5" width="445" height="48.9998" stroke="#292D3A" stroke-width="6.875" stroke-miterlimit="8" fill="#62A9FF"/><text fill="#292D3A" font-family="HPE Graphik,HPE Graphik_MSFontService,sans-serif" font-weight="400" font-size="46" transform="matrix(1 0 0 1 2084.27 239)">C1</text><path d="M544.5 614.5 544.5 717.383" stroke="#292D3A" stroke-width="6.875" stroke-miterlimit="8" fill="none" fill-rule="evenodd"/><path d="M2953.5 614.5 2953.5 717.383" stroke="#292D3A" stroke-width="6.875" stroke-miterlimit="8" fill="none" fill-rule="evenodd"/><rect x="404.5" y="1311.5" width="268" height="132" stroke="#292D3A" stroke-width="6.875" stroke-miterlimit="8" fill="none"/><text fill="#292D3A" font-family="HPE Graphik,HPE Graphik_MSFontService,sans-serif" font-weight="400" font-size="46" transform="matrix(1 0 0 1 465.002 1395)">Node 1</text><rect x="1153.5" y="1317.5" width="267" height="133" stroke="#292D3A" stroke-width="6.875" stroke-miterlimit="8" fill="none"/><text fill="#292D3A" font-family="HPE Graphik,HPE Graphik_MSFontService,sans-serif" font-weight="400" font-size="46" transform="matrix(1 0 0 1 1210.44 1401)">Node 2</text><rect x="1957.5" y="1313.5" width="268" height="133" stroke="#292D3A" stroke-width="6.875" stroke-miterlimit="8" fill="none"/><text fill="#292D3A" font-family="HPE Graphik,HPE Graphik_MSFontService,sans-serif" font-weight="400" font-size="46" transform="matrix(1 0 0 1 2013.67 1397)">Node 3</text><rect x="2788.5" y="1311.5" width="268" height="132" stroke="#292D3A" stroke-width="6.875" stroke-miterlimit="8" fill="none"/><text fill="#292D3A" font-family="HPE Graphik,HPE Graphik_MSFontService,sans-serif" font-weight="400" font-size="46" transform="matrix(1 0 0 1 2844.64 1395)">Node 4</text><path d="M672.5 1377.5 1153.73 1383.64" stroke="#292D3A" stroke-width="6.875" stroke-miterlimit="8" fill="none" fill-rule="evenodd"/><path d="M538.5 1551.5 2923 1551.5" stroke="#292D3A" stroke-width="6.875" stroke-miterlimit="8" fill="none" fill-rule="evenodd"/><path d="M0 0 536.739 3.83123" stroke="#292D3A" stroke-width="6.875" stroke-miterlimit="8" fill="none" fill-rule="evenodd" transform="matrix(1 0 0 -1 1420.5 1383.33)"/><path d="M0 0 563.602 2.30899" stroke="#292D3A" stroke-width="6.875" stroke-miterlimit="8" fill="none" fill-rule="evenodd" transform="matrix(1 0 0 -1 2225.5 1379.81)"/><rect x="328.5" y="1180.5" width="440" height="51.0002" stroke="#292D3A" stroke-width="6.875" stroke-miterlimit="8" fill="none"/><rect x="328.5" y="1125.5" width="440" height="51.0002" stroke="#292D3A" stroke-width="6.875" stroke-miterlimit="8" fill="none"/><rect x="328.5" y="1068.5" width="440" height="51.0002" stroke="#292D3A" stroke-width="6.875" stroke-miterlimit="8" fill="none"/><rect x="328.5" y="1011.5" width="440" height="50.9998" stroke="#292D3A" stroke-width="6.875" stroke-miterlimit="8" fill="url(#fill0)"/><text fill="#292D3A" font-family="HPE Graphik,HPE Graphik_MSFontService,sans-serif" font-weight="400" font-size="46" transform="matrix(1 0 0 1 412.481 1054)">A1+B1+C1+D1</text><rect x="1065.5" y="1181.5" width="440" height="50.9999" stroke="#292D3A" stroke-width="6.875" stroke-miterlimit="8" fill="none"/><rect x="1065.5" y="1126.5" width="440" height="50.9999" stroke="#292D3A" stroke-width="6.875" stroke-miterlimit="8" fill="none"/><rect x="1065.5" y="1069.5" width="440" height="51.0002" stroke="#292D3A" stroke-width="6.875" stroke-miterlimit="8" fill="url(#fill1)"/><text fill="#292D3A" font-family="HPE Graphik,HPE Graphik_MSFontService,sans-serif" font-weight="400" font-size="46" transform="matrix(1 0 0 1 1135.65 1112)">A2+B2+C2+D2</text><rect x="1065.5" y="1013.5" width="440" height="51.0002" stroke="#292D3A" stroke-width="6.875" stroke-miterlimit="8" fill="none"/><rect x="2616.5" y="1178.5" width="440" height="51.0002" stroke="#292D3A" stroke-width="6.875" stroke-miterlimit="8" fill="url(#fill2)"/><text fill="#292D3A" font-family="HPE Graphik,HPE Graphik_MSFontService,sans-serif" font-weight="400" font-size="46" transform="matrix(1 0 0 1 2681.4 1221)">A4+B4+C4+D4</text><rect x="2616.5" y="1123.5" width="440" height="51.0002" stroke="#292D3A" stroke-width="6.875" stroke-miterlimit="8" fill="none"/><rect x="2616.5" y="1066.5" width="440" height="50.9999" stroke="#292D3A" stroke-width="6.875" stroke-miterlimit="8" fill="none"/><rect x="2616.5" y="1009.5" width="440" height="50.9999" stroke="#292D3A" stroke-width="6.875" stroke-miterlimit="8" fill="none"/><rect x="1870.5" y="1178.5" width="440" height="51.0002" stroke="#292D3A" stroke-width="6.875" stroke-miterlimit="8" fill="none"/><rect x="1870.5" y="1123.5" width="440" height="51.0002" stroke="#292D3A" stroke-width="6.875" stroke-miterlimit="8" fill="url(#fill3)"/><text fill="#292D3A" font-family="HPE Graphik,HPE Graphik_MSFontService,sans-serif" font-weight="400" font-size="46" transform="matrix(1 0 0 1 1936.6 1166)">A3+B3+C3+D3</text><rect x="1870.5" y="1066.5" width="440" height="50.9999" stroke="#292D3A" stroke-width="6.875" stroke-miterlimit="8" fill="none"/><rect x="1870.5" y="1009.5" width="440" height="50.9999" stroke="#292D3A" stroke-width="6.875" stroke-miterlimit="8" fill="none"/><path d="M544.5 1443.5 544.5 1550.82" stroke="#292D3A" stroke-width="6.875" stroke-miterlimit="8" fill="none" fill-rule="evenodd"/><path d="M2922.5 1443.5 2922.5 1550.82" stroke="#292D3A" stroke-width="6.875" stroke-miterlimit="8" fill="none" fill-rule="evenodd"/><rect x="404.5" y="2151.5" width="267" height="112" stroke="#292D3A" stroke-width="6.875" stroke-miterlimit="8" fill="none"/><text fill="#292D3A" font-family="HPE Graphik,HPE Graphik_MSFontService,sans-serif" font-weight="400" font-size="46" transform="matrix(1 0 0 1 464.768 2224)">Node 1</text><rect x="1152.5" y="2156.5" width="268" height="112" stroke="#292D3A" stroke-width="6.875" stroke-miterlimit="8" fill="none"/><text fill="#292D3A" font-family="HPE Graphik,HPE Graphik_MSFontService,sans-serif" font-weight="400" font-size="46" transform="matrix(1 0 0 1 1209.69 2229)">Node 2</text><rect x="1956.5" y="2153.5" width="267" height="112" stroke="#292D3A" stroke-width="6.875" stroke-miterlimit="8" fill="none"/><text fill="#292D3A" font-family="HPE Graphik,HPE Graphik_MSFontService,sans-serif" font-weight="400" font-size="46" transform="matrix(1 0 0 1 2012.39 2226)">Node 3</text><rect x="2787.5" y="2151.5" width="267" height="112" stroke="#292D3A" stroke-width="6.875" stroke-miterlimit="8" fill="none"/><text fill="#292D3A" font-family="HPE Graphik,HPE Graphik_MSFontService,sans-serif" font-weight="400" font-size="46" transform="matrix(1 0 0 1 2842.78 2224)">Node 4</text><path d="M671.5 2207.5 1152.4 2212.65" stroke="#292D3A" stroke-width="6.875" stroke-miterlimit="8" fill="none" fill-rule="evenodd"/><path d="M538.5 2353.5 2921.38 2353.5" stroke="#292D3A" stroke-width="6.875" stroke-miterlimit="8" fill="none" fill-rule="evenodd"/><path d="M0 0 536.375 3.21555" stroke="#292D3A" stroke-width="6.875" stroke-miterlimit="8" fill="none" fill-rule="evenodd" transform="matrix(1 0 0 -1 1420.5 2212.72)"/><path d="M0 0 563.219 1.93799" stroke="#292D3A" stroke-width="6.875" stroke-miterlimit="8" fill="none" fill-rule="evenodd" transform="matrix(1 0 0 -1 2223.5 2209.44)"/><rect x="328.5" y="2042.5" width="439" height="42.9999" stroke="#292D3A" stroke-width="6.875" stroke-miterlimit="8" fill="url(#fill4)"/><text fill="#292D3A" font-family="HPE Graphik,HPE Graphik_MSFontService,sans-serif" font-weight="400" font-size="46" transform="matrix(1 0 0 1 392.852 2081)">A4+B4+C4+D4</text><rect x="328.5" y="1996.5" width="439" height="43" stroke="#292D3A" stroke-width="6.875" stroke-miterlimit="8" fill="url(#fill5)"/><text fill="#292D3A" font-family="HPE Graphik,HPE Graphik_MSFontService,sans-serif" font-weight="400" font-size="46" transform="matrix(1 0 0 1 393.998 2035)">A3+B3+C3+D3</text><rect x="328.5" y="1948.5" width="439" height="43" stroke="#292D3A" stroke-width="6.875" stroke-miterlimit="8" fill="url(#fill6)"/><text fill="#292D3A" font-family="HPE Graphik,HPE Graphik_MSFontService,sans-serif" font-weight="400" font-size="46" transform="matrix(1 0 0 1 398.582 1987)">A2+B2+C2+D2</text><rect x="328.5" y="1901.5" width="439" height="41.9999" stroke="#292D3A" stroke-width="6.875" stroke-miterlimit="8" fill="url(#fill7)"/><text fill="#292D3A" font-family="HPE Graphik,HPE Graphik_MSFontService,sans-serif" font-weight="400" font-size="46" transform="matrix(1 0 0 1 412.332 1939)">A1+B1+C1+D1</text><path d="M538.5 2263.5 538.501 2353.57" stroke="#292D3A" stroke-width="6.875" stroke-miterlimit="8" fill="none" fill-rule="evenodd"/><path d="M2920.5 2263.5 2920.5 2353.57" stroke="#292D3A" stroke-width="6.875" stroke-miterlimit="8" fill="none" fill-rule="evenodd"/><rect x="1062.5" y="2042.5" width="440" height="42.9999" stroke="#292D3A" stroke-width="6.875" stroke-miterlimit="8" fill="url(#fill8)"/><text fill="#292D3A" font-family="HPE Graphik,HPE Graphik_MSFontService,sans-serif" font-weight="400" font-size="46" transform="matrix(1 0 0 1 1127.52 2081)">A4+B4+C4+D4</text><rect x="1062.5" y="1996.5" width="440" height="43" stroke="#292D3A" stroke-width="6.875" stroke-miterlimit="8" fill="url(#fill9)"/><text fill="#292D3A" font-family="HPE Graphik,HPE Graphik_MSFontService,sans-serif" font-weight="400" font-size="46" transform="matrix(1 0 0 1 1128.67 2035)">A3+B3+C3+D3</text><rect x="1062.5" y="1948.5" width="440" height="43" stroke="#292D3A" stroke-width="6.875" stroke-miterlimit="8" fill="url(#fill10)"/><text fill="#292D3A" font-family="HPE Graphik,HPE Graphik_MSFontService,sans-serif" font-weight="400" font-size="46" transform="matrix(1 0 0 1 1133.25 1987)">A2+B2+C2+D2</text><rect x="1062.5" y="1901.5" width="440" height="43" stroke="#292D3A" stroke-width="6.875" stroke-miterlimit="8" fill="url(#fill11)"/><text fill="#292D3A" font-family="HPE Graphik,HPE Graphik_MSFontService,sans-serif" font-weight="400" font-size="46" transform="matrix(1 0 0 1 1147 1940)">A1+B1+C1+D1</text><rect x="1869.5" y="2037.5" width="440" height="42.9999" stroke="#292D3A" stroke-width="6.875" stroke-miterlimit="8" fill="url(#fill12)"/><text fill="#292D3A" font-family="HPE Graphik,HPE Graphik_MSFontService,sans-serif" font-weight="400" font-size="46" transform="matrix(1 0 0 1 1934.25 2076)">A4+B4+C4+D4</text><rect x="1869.5" y="1991.5" width="440" height="43.0004" stroke="#292D3A" stroke-width="6.875" stroke-miterlimit="8" fill="url(#fill13)"/><text fill="#292D3A" font-family="HPE Graphik,HPE Graphik_MSFontService,sans-serif" font-weight="400" font-size="46" transform="matrix(1 0 0 1 1935.4 2030)">A3+B3+C3+D3</text><rect x="1869.5" y="1943.5" width="440" height="43" stroke="#292D3A" stroke-width="6.875" stroke-miterlimit="8" fill="url(#fill14)"/><text fill="#292D3A" font-family="HPE Graphik,HPE Graphik_MSFontService,sans-serif" font-weight="400" font-size="46" transform="matrix(1 0 0 1 1939.98 1982)">A2+B2+C2+D2</text><rect x="1869.5" y="1896.5" width="440" height="43" stroke="#292D3A" stroke-width="6.875" stroke-miterlimit="8" fill="url(#fill15)"/><text fill="#292D3A" font-family="HPE Graphik,HPE Graphik_MSFontService,sans-serif" font-weight="400" font-size="46" transform="matrix(1 0 0 1 1953.73 1935)">A1+B1+C1+D1</text><rect x="2614.5" y="2036.5" width="440" height="42.9999" stroke="#292D3A" stroke-width="6.875" stroke-miterlimit="8" fill="url(#fill16)"/><text fill="#292D3A" font-family="HPE Graphik,HPE Graphik_MSFontService,sans-serif" font-weight="400" font-size="46" transform="matrix(1 0 0 1 2679.6 2075)">A4+B4+C4+D4</text><rect x="2614.5" y="1990.5" width="440" height="43" stroke="#292D3A" stroke-width="6.875" stroke-miterlimit="8" fill="url(#fill17)"/><text fill="#292D3A" font-family="HPE Graphik,HPE Graphik_MSFontService,sans-serif" font-weight="400" font-size="46" transform="matrix(1 0 0 1 2680.75 2029)">A3+B3+C3+D3</text><rect x="2614.5" y="1942.5" width="440" height="43" stroke="#292D3A" stroke-width="6.875" stroke-miterlimit="8" fill="url(#fill18)"/><text fill="#292D3A" font-family="HPE Graphik,HPE Graphik_MSFontService,sans-serif" font-weight="400" font-size="46" transform="matrix(1 0 0 1 2685.33 1981)">A2+B2+C2+D2</text><rect x="2614.5" y="1895.5" width="440" height="41.9999" stroke="#292D3A" stroke-width="6.875" stroke-miterlimit="8" fill="url(#fill19)"/><text fill="#292D3A" font-family="HPE Graphik,HPE Graphik_MSFontService,sans-serif" font-weight="400" font-size="46" transform="matrix(1 0 0 1 2699.08 1934)">A1+B1+C1+D1</text></g></svg>